<svg width="28" height="35" viewBox="0 0 28 35" fill="none" xmlns="http://www.w3.org/2000/svg">
<path d="M24 25.8052V21.0134H21.0326L14.0085 14.5231C14.0873 14.3007 14.1307 14.0617 14.1307 13.8127C14.1307 12.6378 13.1749 11.682 12 11.682C10.8251 11.682 9.86932 12.6378 9.86932 13.8127C9.86932 14.0617 9.91267 14.3007 9.99155 14.5231L2.96739 21.0134H0V25.8052H0.838911L3.75375 34.3181H20.2462L23.161 25.8052H24V25.8052ZM15.903 28.3536H12.8412V25.8284H16.1524L15.903 28.3536ZM11.1588 32.6356H8.5198L8.2631 30.0361H11.1588V32.6356ZM8.09698 28.3536L7.84763 25.8284H11.1588V28.3536H8.09698ZM12.4482 13.8127C12.4482 13.9426 12.3923 14.0594 12.3037 14.1413C12.2238 14.2153 12.1172 14.2609 12 14.2609C11.8828 14.2609 11.7763 14.2153 11.6963 14.1413C11.6077 14.0594 11.5518 13.9426 11.5518 13.8127C11.5518 13.6827 11.6077 13.5659 11.6963 13.484C11.7762 13.4101 11.8828 13.3645 12 13.3645C12.1172 13.3645 12.2237 13.4101 12.3037 13.484C12.3923 13.5659 12.4482 13.6827 12.4482 13.8127ZM11.1336 15.7585C11.3985 15.877 11.6916 15.9434 12 15.9434C12.3084 15.9434 12.6015 15.877 12.8664 15.7585L18.5535 21.0134H5.44657L11.1336 15.7585ZM1.68247 22.6959H22.3175V24.1227H1.68247V22.6959ZM6.15699 25.8284L6.40634 28.3536H3.4899L2.62525 25.8284H6.15699ZM4.95605 32.6356L4.06597 30.0361H6.57249L6.82916 32.6356H4.95605ZM12.8412 30.0361H15.7369L15.4802 32.6356H12.8412V30.0361ZM19.044 32.6356H17.1708L17.4275 30.0361H19.934L19.044 32.6356ZM20.5101 28.3536H17.5937L17.843 25.8284H21.3748L20.5101 28.3536Z" fill="#E9515D"/>
<circle cx="20" cy="14" r="7.5" fill="#E9515D" stroke="white"/>
<path d="M20.33 17V15.74H17.36V14.63L20.59 9.95H21.85V14.52H22.81V15.74H21.85V17H20.33ZM20.33 14.52V12.22L18.77 14.52H20.33Z" fill="white"/>
<text xmlns="http://www.w3.org/2000/svg" y="17" font-size="10" fill="#fff" x="15"></text>
</svg>
