<svg width="29" height="29" viewBox="0 0 29 29" fill="none" xmlns="http://www.w3.org/2000/svg">
<path d="M4.74127 11.831C5.02155 12.0931 5.61744 12.1501 5.94963 11.7608L8.07627 9.33448C8.3852 8.98209 8.3496 8.44625 7.99681 8.13767C7.64407 7.82914 7.10767 7.86457 6.7988 8.21702L5.24059 9.99478L4.82294 9.61726C4.47519 9.30301 3.93839 9.32979 3.62375 9.67714C3.30916 10.0245 3.33599 10.5608 3.68369 10.8751L4.74127 11.831Z" fill="#1D1D1B" fill-opacity="0.4"/>
<path d="M15.188 10.3208H10.2892C9.82031 10.3208 9.44019 10.7005 9.44019 11.169C9.44019 11.6374 9.82031 12.0171 10.2892 12.0171H15.188C15.6569 12.0171 16.037 11.6374 16.037 11.169C16.037 10.7005 15.6569 10.3208 15.188 10.3208Z" fill="#1D1D1B" fill-opacity="0.4"/>
<path d="M15.1881 13.8389H4.1836C3.71472 13.8389 3.33459 14.2186 3.33459 14.687C3.33459 15.1555 3.71472 15.5352 4.1836 15.5352H15.1881C15.657 15.5352 16.0371 15.1555 16.0371 14.687C16.0371 14.2186 15.657 13.8389 15.1881 13.8389Z" fill="#1D1D1B" fill-opacity="0.4"/>
<path d="M4.74127 21.5539C5.02155 21.816 5.61744 21.873 5.94963 21.4837L8.07627 19.0574C8.3852 18.705 8.3496 18.1692 7.99681 17.8606C7.64407 17.552 7.10767 17.5875 6.7988 17.9399L5.24059 19.7177L4.82294 19.3402C4.47519 19.026 3.93833 19.0528 3.62375 19.4001C3.30916 19.7475 3.33599 20.2838 3.68369 20.5981L4.74127 21.5539Z" fill="#1D1D1B" fill-opacity="0.4"/>
<path d="M15.188 20.0405H10.2892C9.82031 20.0405 9.44019 20.4203 9.44019 20.8887C9.44019 21.3571 9.82031 21.7368 10.2892 21.7368H15.188C15.6569 21.7368 16.037 21.3571 16.037 20.8887C16.037 20.4203 15.6569 20.0405 15.188 20.0405Z" fill="#1D1D1B" fill-opacity="0.4"/>
<path d="M15.1881 23.5082H4.1836C3.71472 23.5082 3.33459 23.8879 3.33459 24.3563C3.33459 24.8248 3.71472 25.2045 4.1836 25.2045H15.1881C15.657 25.2045 16.0371 24.8248 16.0371 24.3563C16.0371 23.8879 15.657 23.5082 15.1881 23.5082Z" fill="#1D1D1B" fill-opacity="0.4"/>
<path d="M26.9149 0H10.7489C10.5951 0.000735805 10.4112 0.031017 10.2295 0.101654C10.0578 0.0687129 9.88184 0.0516196 9.70332 0.0516196C8.97499 0.0516196 8.28764 0.332301 7.76799 0.841987C7.45425 1.14967 7.22281 1.52 7.08567 1.92515H6.17825C5.53742 1.92515 5.01262 2.42504 4.9708 3.05484H1.97675C0.894776 3.05484 0.0145264 3.93418 0.0145264 5.01508V27.0398C0.0145264 28.1207 0.894776 29.0001 1.97675 29.0001H17.43C18.3351 29.0001 19.0987 28.3845 19.3243 27.5505H27.0576C28.0779 27.4886 29.005 26.5623 28.9859 25.4817V2.0688C28.9859 0.928077 28.0569 0 26.9149 0ZM6.66468 3.62141H7.78978C8.25203 3.62141 8.62933 3.25198 8.63861 2.79029C8.65016 2.21545 9.12781 1.74782 9.70332 1.74782C10.2788 1.74782 10.7565 2.21545 10.7681 2.79029C10.7774 3.25198 11.1547 3.62141 11.6169 3.62141H12.742V4.5556H6.66468V3.62141ZM17.6942 27.0398C17.6942 27.1853 17.5756 27.3037 17.43 27.3037H1.97675C1.83106 27.3037 1.71254 27.1853 1.71254 27.0398V5.01502C1.71254 4.8695 1.83106 4.75109 1.97675 4.75109H4.96666V4.93131C4.96666 5.65947 5.55967 6.25191 6.28857 6.25191H13.1181C13.847 6.25191 14.44 5.65953 14.44 4.93131V4.75109H17.43C17.5756 4.75109 17.6942 4.8695 17.6942 5.01502V27.0398ZM27.2879 25.4816C27.2879 25.6708 27.1464 25.8296 26.9587 25.851C26.9505 25.852 26.9424 25.853 26.9343 25.8542H19.3922V5.01502C19.3922 3.93418 18.5119 3.05478 17.43 3.05478H14.4354C14.3884 2.42419 13.8609 1.92509 13.2178 1.92509H12.321C12.2947 1.84732 12.2638 1.77125 12.2306 1.69626H26.9149C27.1206 1.69626 27.2879 1.8634 27.2879 2.0688V25.4816Z" fill="#1D1D1B" fill-opacity="0.4"/>
</svg>
