<svg width="44" height="44" viewBox="0 0 44 44" fill="none" xmlns="http://www.w3.org/2000/svg">
<mask id="mask0" mask-type="alpha" maskUnits="userSpaceOnUse" x="0" y="0" width="44" height="44">
<path d="M0.611084 0.56781H43.8199V43.5428H0.611084V0.56781Z" fill="white"/>
</mask>
<g mask="url(#mask0)">
<path fill-rule="evenodd" clip-rule="evenodd" d="M22.2154 43.5428C34.1474 43.5428 43.8196 33.9223 43.8196 22.055C43.8196 10.1883 34.1474 0.56781 22.2154 0.56781C10.2835 0.56781 0.610596 10.1883 0.610596 22.055C0.610596 33.9223 10.2835 43.5428 22.2154 43.5428Z" fill="#E9515D" fill-opacity="0.8"/>
</g>
<path fill-rule="evenodd" clip-rule="evenodd" d="M10.9696 24.3614C10.9696 24.8412 10.7481 25.0814 10.3057 25.0814H9.63598V23.583V22.8675H10.1167C10.3285 22.8675 10.4746 22.8834 10.554 22.9163C10.8292 23.0237 10.9673 23.2468 10.969 23.583H10.9696V24.3614ZM10.9696 20.6269C10.9696 20.967 10.8309 21.193 10.554 21.3049C10.4746 21.3339 10.3285 21.3486 10.1167 21.3486H9.63598V20.502V17.5545H10.3057C10.7481 17.5545 10.9696 17.7947 10.9696 18.2745V20.502V20.6269ZM12.4979 24.3614V23.583C12.4962 22.888 12.2176 22.3962 11.661 22.1078C12.2188 21.8188 12.4979 21.3248 12.4979 20.6269V20.502V18.2745C12.4979 16.7993 11.8191 16.06 10.4621 16.056H8.22641C8.16076 16.056 8.10767 16.1088 8.10767 16.1741V20.502V23.583V26.4618C8.10767 26.5271 8.16076 26.5799 8.22641 26.5799H10.4621C11.8191 26.5759 12.4979 25.8366 12.4979 24.3614ZM16.3002 23.83C16.3002 24.6913 16.0347 25.388 15.2822 25.383C14.914 25.3807 14.9996 23.9799 14.9996 23.5302C14.9996 22.6546 15.4524 22.3184 16.3002 22.1078V23.83ZM17.7988 26.476V18.0922C17.7988 16.6454 17.0823 15.9214 15.6488 15.9214C14.2112 15.9214 13.493 16.6454 13.493 18.0922V19.1046C13.493 19.1693 13.5461 19.2227 13.6118 19.2227H14.8729C14.9386 19.2227 14.9917 19.1693 14.9917 19.1046V18.0922C14.9917 17.6289 15.2086 17.3949 15.6431 17.3915H15.6539C16.0844 17.3915 16.3002 17.6249 16.3002 18.0922V20.6905C14.4533 20.8699 13.5296 22.0056 13.5296 23.7476V24.8713C13.5296 25.4017 13.6546 25.8497 13.9035 26.2148C14.1524 26.5799 14.5201 26.7627 15.0076 26.7627C15.6008 26.7593 16.0495 26.4907 16.3533 25.9564L16.4589 26.5941H17.6801C17.7457 26.5941 17.7988 26.5413 17.7988 26.476ZM23.7345 26.4192L21.9247 23.1344C21.9179 23.1213 21.9156 23.106 21.9196 23.0912L23.6848 16.2037C23.7043 16.1287 23.6472 16.056 23.5701 16.056H22.2873C22.233 16.056 22.1851 16.0935 22.1719 16.1463L20.5688 22.6358V16.1741C20.5688 16.1088 20.5157 16.056 20.4501 16.056H19.1593C19.0936 16.056 19.0405 16.1088 19.0405 16.1741V26.476C19.0405 26.5413 19.0936 26.5941 19.1593 26.5941H20.4501C20.5157 26.5941 20.5688 26.5413 20.5688 26.476V23.7476L22.1605 26.5345C22.1811 26.5714 22.221 26.5941 22.2633 26.5941H23.63C23.7202 26.5941 23.7779 26.4981 23.7345 26.4192ZM29.1027 25.3279V16.9543C29.1027 16.889 29.0497 16.8362 28.984 16.8362H27.6932C27.6275 16.8362 27.5744 16.889 27.5744 16.9543V25.3279C27.5744 25.8043 27.3512 26.0422 26.9048 26.0422C26.4623 26.0422 26.2408 25.8043 26.2408 25.3279V16.9543C26.2408 16.889 26.1877 16.8362 26.122 16.8362H24.8312C24.7656 16.8362 24.7125 16.889 24.7125 16.9543V25.3279C24.7125 26.8064 25.4432 27.5463 26.9048 27.5463C28.3703 27.5423 29.1027 26.803 29.1027 25.3279ZM34.3151 26.476V25.2137C34.3151 25.1484 34.262 25.0956 34.1964 25.0956H31.939C31.9059 25.0956 31.8796 25.0695 31.8796 25.0366V16.1741C31.8796 16.1088 31.8265 16.056 31.7609 16.056H30.4701C30.4044 16.056 30.3513 16.1088 30.3513 16.1741V26.476C30.3513 26.5413 30.4044 26.5941 30.4701 26.5941H34.1964C34.262 26.5941 34.3151 26.5413 34.3151 26.476ZM36.7883 26.476V16.1741C36.7883 16.1088 36.7352 16.056 36.6695 16.056H35.3787C35.3131 16.056 35.26 16.1088 35.26 16.1741V26.476C35.26 26.5413 35.3131 26.5941 35.3787 26.5941H36.6695C36.7352 26.5941 36.7883 26.5413 36.7883 26.476Z" fill="#FEFEFE"/>
</svg>
