<svg width="41" height="17" viewBox="0 0 41 17" fill="none" xmlns="http://www.w3.org/2000/svg">
<path fill-rule="evenodd" clip-rule="evenodd" d="M4.38954 12.3812C4.38954 13.0681 4.07714 13.412 3.45314 13.412H2.50869V11.2665V10.2421H3.18663C3.48535 10.2421 3.69147 10.2649 3.80338 10.3121C4.19147 10.4657 4.38632 10.7852 4.38874 11.2665H4.38954V12.3812ZM4.38954 7.03401C4.38954 7.521 4.19389 7.84458 3.80338 8.00474C3.69147 8.04621 3.48535 8.06734 3.18663 8.06734H2.50869V6.85515V2.63484H3.45314C4.07714 2.63484 4.38954 2.97874 4.38954 3.66573V6.85515V7.03401ZM6.54496 12.3812V11.2665C6.54254 10.2714 6.14962 9.56734 5.36459 9.15433C6.15123 8.74051 6.54496 8.0332 6.54496 7.03401V6.85515V3.66573C6.54496 1.55354 5.58762 0.495006 3.67375 0.489314H0.520745C0.428151 0.489314 0.353271 0.564923 0.353271 0.658418V6.85515V11.2665V15.3885C0.353271 15.482 0.428151 15.5576 0.520745 15.5576H3.67375C5.58762 15.5519 6.54496 14.4933 6.54496 12.3812ZM11.9073 11.6202C11.9073 12.8535 11.5329 13.8511 10.4717 13.8438C9.9524 13.8405 10.0732 11.8348 10.0732 11.1909C10.0732 9.93726 10.7117 9.45596 11.9073 9.15433V11.6202ZM14.0209 15.4088V3.40475C14.0209 1.33322 13.0104 0.296631 10.9886 0.296631C8.96124 0.296631 7.94835 1.33322 7.94835 3.40475V4.85434C7.94835 4.94703 8.02323 5.02345 8.11582 5.02345H9.89442C9.98702 5.02345 10.0619 4.94703 10.0619 4.85434V3.40475C10.0619 2.74134 10.3679 2.40638 10.9806 2.4015H10.9959C11.603 2.4015 11.9073 2.73565 11.9073 3.40475V7.12507C9.30263 7.38198 7.99988 9.00799 7.99988 11.5023V13.1112C7.99988 13.8706 8.17621 14.512 8.52726 15.0348C8.87831 15.5576 9.39683 15.8194 10.0844 15.8194C10.921 15.8145 11.5539 15.4299 11.9822 14.6649L12.1312 15.5779H13.8534C13.946 15.5779 14.0209 15.5023 14.0209 15.4088ZM22.3921 15.3275L19.8398 10.6242C19.8301 10.6055 19.8269 10.5836 19.8325 10.5625L22.3221 0.700695C22.3495 0.593378 22.2689 0.489314 22.1602 0.489314H20.351C20.2746 0.489314 20.2069 0.542973 20.1884 0.618582L17.9275 9.91043V0.658418C17.9275 0.564923 17.8526 0.489314 17.76 0.489314H15.9396C15.847 0.489314 15.7721 0.564923 15.7721 0.658418V15.4088C15.7721 15.5023 15.847 15.5779 15.9396 15.5779H17.76C17.8526 15.5779 17.9275 15.5023 17.9275 15.4088V11.5023L20.1723 15.4925C20.2013 15.5454 20.2576 15.5779 20.3172 15.5779H22.2448C22.372 15.5779 22.4533 15.4405 22.3921 15.3275ZM29.963 13.7649V1.77549C29.963 1.68199 29.8882 1.60638 29.7956 1.60638H27.9751C27.8825 1.60638 27.8076 1.68199 27.8076 1.77549V13.7649C27.8076 14.447 27.4928 14.7877 26.8632 14.7877C26.2392 14.7877 25.9268 14.447 25.9268 13.7649V1.77549C25.9268 1.68199 25.8519 1.60638 25.7593 1.60638H23.9388C23.8462 1.60638 23.7714 1.68199 23.7714 1.77549V13.7649C23.7714 15.882 24.802 16.9413 26.8632 16.9413C28.93 16.9356 29.963 15.8771 29.963 13.7649ZM37.3142 15.4088V13.6015C37.3142 13.508 37.2393 13.4324 37.1467 13.4324H33.9631C33.9164 13.4324 33.8793 13.395 33.8793 13.3478V0.658418C33.8793 0.564923 33.8045 0.489314 33.7119 0.489314H31.8914C31.7988 0.489314 31.7239 0.564923 31.7239 0.658418V15.4088C31.7239 15.5023 31.7988 15.5779 31.8914 15.5779H37.1467C37.2393 15.5779 37.3142 15.5023 37.3142 15.4088ZM40.8021 15.4088V0.658418C40.8021 0.564923 40.7272 0.489314 40.6346 0.489314H38.8142C38.7216 0.489314 38.6467 0.564923 38.6467 0.658418V15.4088C38.6467 15.5023 38.7216 15.5779 38.8142 15.5779H40.6346C40.7272 15.5779 40.8021 15.5023 40.8021 15.4088Z" fill="#1D1D1B"/>
</svg>
