<svg width="94" height="94" viewBox="0 0 94 94" fill="none" xmlns="http://www.w3.org/2000/svg">
<g clip-path="url(#clip0)">
<mask id="mask0" mask-type="alpha" maskUnits="userSpaceOnUse" x="1" y="1" width="93" height="93">
<path d="M1.30566 1.21301H93.6154V93.0232H1.30566V1.21301Z" fill="white"/>
</mask>
<g mask="url(#mask0)">
<path fill-rule="evenodd" clip-rule="evenodd" d="M47.4609 93.0232C72.9519 93.0232 93.6154 72.4704 93.6154 47.1175C93.6154 21.7658 72.9519 1.21301 47.4609 1.21301C21.9699 1.21301 1.30518 21.7658 1.30518 47.1175C1.30518 72.4704 21.9699 93.0232 47.4609 93.0232Z" fill="#1D1D1B"/>
</g>
<path fill-rule="evenodd" clip-rule="evenodd" d="M23.4352 52.0448C23.4352 53.0698 22.962 53.583 22.0167 53.583H20.5861V50.3817V48.8532H21.613C22.0655 48.8532 22.3778 48.8872 22.5473 48.9576C23.1352 49.1868 23.4303 49.6636 23.434 50.3817H23.4352V52.0448ZM23.4352 44.0665C23.4352 44.7931 23.1388 45.2759 22.5473 45.5149C22.3778 45.5768 22.0655 45.6083 21.613 45.6083H20.5861V43.7996V37.5027H22.0167C22.962 37.5027 23.4352 38.0158 23.4352 39.0408V43.7996V44.0665ZM26.7003 52.0448V50.3817C26.6966 48.8969 26.1014 47.8464 24.9122 47.2302C26.1038 46.6127 26.7003 45.5574 26.7003 44.0665V43.7996V39.0408C26.7003 35.8893 25.2501 34.3099 22.3509 34.3014H17.5747C17.4345 34.3014 17.321 34.4142 17.321 34.5537V43.7996V50.3817V56.5319C17.321 56.6714 17.4345 56.7842 17.5747 56.7842H22.3509C25.2501 56.7757 26.7003 55.1963 26.7003 52.0448ZM34.8232 50.9094C34.8232 52.7496 34.2561 54.238 32.6486 54.2271C31.8619 54.2222 32.0448 51.2296 32.0448 50.2689C32.0448 48.3983 33.012 47.6802 34.8232 47.2302V50.9094ZM38.0248 56.5622V38.6514C38.0248 35.5606 36.4942 34.0139 33.4316 34.0139C30.3605 34.0139 28.8261 35.5606 28.8261 38.6514V40.8143C28.8261 40.9526 28.9396 41.0666 29.0798 41.0666H31.7741C31.9143 41.0666 32.0278 40.9526 32.0278 40.8143V38.6514C32.0278 37.6616 32.4912 37.1618 33.4194 37.1545H33.4426C34.3622 37.1545 34.8232 37.6531 34.8232 38.6514V44.2024C30.8776 44.5857 28.9042 47.0118 28.9042 50.7335V53.1341C28.9042 54.2671 29.1713 55.2242 29.7031 56.0042C30.2348 56.7842 31.0203 57.1748 32.0619 57.1748C33.3291 57.1675 34.2878 56.5938 34.9366 55.4523L35.1623 56.8145H37.7711C37.9114 56.8145 38.0248 56.7017 38.0248 56.5622ZM50.7057 56.4409L46.8393 49.4234C46.8247 49.3955 46.8198 49.3627 46.8284 49.3312L50.5996 34.6168C50.641 34.4567 50.5191 34.3014 50.3544 34.3014H47.6138C47.498 34.3014 47.3955 34.3815 47.3675 34.4943L43.9426 48.3583V34.5537C43.9426 34.4142 43.8292 34.3014 43.689 34.3014H40.9313C40.791 34.3014 40.6776 34.4142 40.6776 34.5537V56.5622C40.6776 56.7017 40.791 56.8145 40.9313 56.8145H43.689C43.8292 56.8145 43.9426 56.7017 43.9426 56.5622V50.7335L47.3431 56.6872C47.387 56.766 47.4724 56.8145 47.5626 56.8145H50.4825C50.6752 56.8145 50.7984 56.6095 50.7057 56.4409ZM62.1742 54.1094V36.2205C62.1742 36.081 62.0608 35.9682 61.9205 35.9682H59.1628C59.0226 35.9682 58.9091 36.081 58.9091 36.2205V54.1094C58.9091 55.1272 58.4323 55.6354 57.4785 55.6354C56.5332 55.6354 56.06 55.1272 56.06 54.1094V36.2205C56.06 36.081 55.9466 35.9682 55.8063 35.9682H53.0487C52.9084 35.9682 52.795 36.081 52.795 36.2205V54.1094C52.795 57.2682 54.3561 58.8488 57.4785 58.8488C60.6094 58.8403 62.1742 57.2609 62.1742 54.1094ZM73.3097 56.5622V53.8656C73.3097 53.7261 73.1963 53.6133 73.056 53.6133H68.2335C68.1627 53.6133 68.1066 53.5575 68.1066 53.4871V34.5537C68.1066 34.4142 67.9932 34.3014 67.8529 34.3014H65.0953C64.955 34.3014 64.8416 34.4142 64.8416 34.5537V56.5622C64.8416 56.7017 64.955 56.8145 65.0953 56.8145H73.056C73.1963 56.8145 73.3097 56.7017 73.3097 56.5622ZM78.5933 56.5622V34.5537C78.5933 34.4142 78.4799 34.3014 78.3396 34.3014H75.5819C75.4417 34.3014 75.3283 34.4142 75.3283 34.5537V56.5622C75.3283 56.7017 75.4417 56.8145 75.5819 56.8145H78.3396C78.4799 56.8145 78.5933 56.7017 78.5933 56.5622Z" fill="#FEFEFE"/>
</g>
<defs>
<clipPath id="clip0">
<rect width="92.6944" height="94" fill="white" transform="translate(1.30566)"/>
</clipPath>
</defs>
</svg>
