<svg xmlns="http://www.w3.org/2000/svg" viewBox="0 0 841.9 595.3">
  <symbol id="icon-user" viewBox="0 0 27 31">
    <path fill-rule="evenodd" clip-rule="evenodd" d="M25.0718 24.6017C25.0725 24.0102 24.7844 23.4557 24.3001 23.1162C21.0318 20.9997 17.1865 19.9513 13.2963 20.1161C9.40605 19.9513 5.56076 20.9997 2.2925 23.1162C1.80818 23.4557 1.52008 24.0102 1.52075 24.6017V29.1742H25.0718V24.6017Z" stroke="#1D1D1B" stroke-opacity="0.4" stroke-width="2.5" stroke-linecap="round" stroke-linejoin="round"/>
    <circle cx="13.2962" cy="8.34067" r="6.34067" stroke="#1D1D1B" stroke-opacity="0.4" stroke-width="2.5" stroke-linecap="round" stroke-linejoin="round"/>
  </symbol>
  <symbol id="icon-bakuli" viewBox="0 0 44 44">
    <mask id="mask0" mask-type="alpha" maskUnits="userSpaceOnUse" x="0" y="0">
    <path d="M0.611084 0.56781H43.8199V43.5428H0.611084V0.56781Z" fill="white"/>
    </mask>
    <g mask="url(#mask0)">
    <path fill-rule="evenodd" clip-rule="evenodd" d="M22.2154 43.5428C34.1474 43.5428 43.8196 33.9223 43.8196 22.055C43.8196 10.1883 34.1474 0.56781 22.2154 0.56781C10.2835 0.56781 0.610596 10.1883 0.610596 22.055C0.610596 33.9223 10.2835 43.5428 22.2154 43.5428Z" fill="#E9515D" fill-opacity="0.8"/>
    </g>
    <path fill-rule="evenodd" clip-rule="evenodd" d="M10.9696 24.3614C10.9696 24.8412 10.7481 25.0814 10.3057 25.0814H9.63598V23.583V22.8675H10.1167C10.3285 22.8675 10.4746 22.8834 10.554 22.9163C10.8292 23.0237 10.9673 23.2468 10.969 23.583H10.9696V24.3614ZM10.9696 20.6269C10.9696 20.967 10.8309 21.193 10.554 21.3049C10.4746 21.3339 10.3285 21.3486 10.1167 21.3486H9.63598V20.502V17.5545H10.3057C10.7481 17.5545 10.9696 17.7947 10.9696 18.2745V20.502V20.6269ZM12.4979 24.3614V23.583C12.4962 22.888 12.2176 22.3962 11.661 22.1078C12.2188 21.8188 12.4979 21.3248 12.4979 20.6269V20.502V18.2745C12.4979 16.7993 11.8191 16.06 10.4621 16.056H8.22641C8.16076 16.056 8.10767 16.1088 8.10767 16.1741V20.502V23.583V26.4618C8.10767 26.5271 8.16076 26.5799 8.22641 26.5799H10.4621C11.8191 26.5759 12.4979 25.8366 12.4979 24.3614ZM16.3002 23.83C16.3002 24.6913 16.0347 25.388 15.2822 25.383C14.914 25.3807 14.9996 23.9799 14.9996 23.5302C14.9996 22.6546 15.4524 22.3184 16.3002 22.1078V23.83ZM17.7988 26.476V18.0922C17.7988 16.6454 17.0823 15.9214 15.6488 15.9214C14.2112 15.9214 13.493 16.6454 13.493 18.0922V19.1046C13.493 19.1693 13.5461 19.2227 13.6118 19.2227H14.8729C14.9386 19.2227 14.9917 19.1693 14.9917 19.1046V18.0922C14.9917 17.6289 15.2086 17.3949 15.6431 17.3915H15.6539C16.0844 17.3915 16.3002 17.6249 16.3002 18.0922V20.6905C14.4533 20.8699 13.5296 22.0056 13.5296 23.7476V24.8713C13.5296 25.4017 13.6546 25.8497 13.9035 26.2148C14.1524 26.5799 14.5201 26.7627 15.0076 26.7627C15.6008 26.7593 16.0495 26.4907 16.3533 25.9564L16.4589 26.5941H17.6801C17.7457 26.5941 17.7988 26.5413 17.7988 26.476ZM23.7345 26.4192L21.9247 23.1344C21.9179 23.1213 21.9156 23.106 21.9196 23.0912L23.6848 16.2037C23.7043 16.1287 23.6472 16.056 23.5701 16.056H22.2873C22.233 16.056 22.1851 16.0935 22.1719 16.1463L20.5688 22.6358V16.1741C20.5688 16.1088 20.5157 16.056 20.4501 16.056H19.1593C19.0936 16.056 19.0405 16.1088 19.0405 16.1741V26.476C19.0405 26.5413 19.0936 26.5941 19.1593 26.5941H20.4501C20.5157 26.5941 20.5688 26.5413 20.5688 26.476V23.7476L22.1605 26.5345C22.1811 26.5714 22.221 26.5941 22.2633 26.5941H23.63C23.7202 26.5941 23.7779 26.4981 23.7345 26.4192ZM29.1027 25.3279V16.9543C29.1027 16.889 29.0497 16.8362 28.984 16.8362H27.6932C27.6275 16.8362 27.5744 16.889 27.5744 16.9543V25.3279C27.5744 25.8043 27.3512 26.0422 26.9048 26.0422C26.4623 26.0422 26.2408 25.8043 26.2408 25.3279V16.9543C26.2408 16.889 26.1877 16.8362 26.122 16.8362H24.8312C24.7656 16.8362 24.7125 16.889 24.7125 16.9543V25.3279C24.7125 26.8064 25.4432 27.5463 26.9048 27.5463C28.3703 27.5423 29.1027 26.803 29.1027 25.3279ZM34.3151 26.476V25.2137C34.3151 25.1484 34.262 25.0956 34.1964 25.0956H31.939C31.9059 25.0956 31.8796 25.0695 31.8796 25.0366V16.1741C31.8796 16.1088 31.8265 16.056 31.7609 16.056H30.4701C30.4044 16.056 30.3513 16.1088 30.3513 16.1741V26.476C30.3513 26.5413 30.4044 26.5941 30.4701 26.5941H34.1964C34.262 26.5941 34.3151 26.5413 34.3151 26.476ZM36.7883 26.476V16.1741C36.7883 16.1088 36.7352 16.056 36.6695 16.056H35.3787C35.3131 16.056 35.26 16.1088 35.26 16.1741V26.476C35.26 26.5413 35.3131 26.5941 35.3787 26.5941H36.6695C36.7352 26.5941 36.7883 26.5413 36.7883 26.476Z" fill="#FEFEFE"/>
  </symbol>
  <symbol id="icon-checkList"  viewBox="0 0 29 29"> 
    <path d="M4.74127 11.831C5.02155 12.0931 5.61744 12.1501 5.94963 11.7608L8.07627 9.33448C8.3852 8.98209 8.3496 8.44625 7.99681 8.13767C7.64407 7.82914 7.10767 7.86457 6.7988 8.21702L5.24059 9.99478L4.82294 9.61726C4.47519 9.30301 3.93839 9.32979 3.62375 9.67714C3.30916 10.0245 3.33599 10.5608 3.68369 10.8751L4.74127 11.831Z" fill="#1D1D1B" fill-opacity="0.4"/>
    <path d="M15.188 10.3208H10.2892C9.82031 10.3208 9.44019 10.7005 9.44019 11.169C9.44019 11.6374 9.82031 12.0171 10.2892 12.0171H15.188C15.6569 12.0171 16.037 11.6374 16.037 11.169C16.037 10.7005 15.6569 10.3208 15.188 10.3208Z" fill="#1D1D1B" fill-opacity="0.4"/>
    <path d="M15.1881 13.8389H4.1836C3.71472 13.8389 3.33459 14.2186 3.33459 14.687C3.33459 15.1555 3.71472 15.5352 4.1836 15.5352H15.1881C15.657 15.5352 16.0371 15.1555 16.0371 14.687C16.0371 14.2186 15.657 13.8389 15.1881 13.8389Z" fill="#1D1D1B" fill-opacity="0.4"/>
    <path d="M4.74127 21.5539C5.02155 21.816 5.61744 21.873 5.94963 21.4837L8.07627 19.0574C8.3852 18.705 8.3496 18.1692 7.99681 17.8606C7.64407 17.552 7.10767 17.5875 6.7988 17.9399L5.24059 19.7177L4.82294 19.3402C4.47519 19.026 3.93833 19.0528 3.62375 19.4001C3.30916 19.7475 3.33599 20.2838 3.68369 20.5981L4.74127 21.5539Z" fill="#1D1D1B" fill-opacity="0.4"/>
    <path d="M15.188 20.0405H10.2892C9.82031 20.0405 9.44019 20.4203 9.44019 20.8887C9.44019 21.3571 9.82031 21.7368 10.2892 21.7368H15.188C15.6569 21.7368 16.037 21.3571 16.037 20.8887C16.037 20.4203 15.6569 20.0405 15.188 20.0405Z" fill="#1D1D1B" fill-opacity="0.4"/>
    <path d="M15.1881 23.5082H4.1836C3.71472 23.5082 3.33459 23.8879 3.33459 24.3563C3.33459 24.8248 3.71472 25.2045 4.1836 25.2045H15.1881C15.657 25.2045 16.0371 24.8248 16.0371 24.3563C16.0371 23.8879 15.657 23.5082 15.1881 23.5082Z" fill="#1D1D1B" fill-opacity="0.4"/>
    <path d="M26.9149 0H10.7489C10.5951 0.000735805 10.4112 0.031017 10.2295 0.101654C10.0578 0.0687129 9.88184 0.0516196 9.70332 0.0516196C8.97499 0.0516196 8.28764 0.332301 7.76799 0.841987C7.45425 1.14967 7.22281 1.52 7.08567 1.92515H6.17825C5.53742 1.92515 5.01262 2.42504 4.9708 3.05484H1.97675C0.894776 3.05484 0.0145264 3.93418 0.0145264 5.01508V27.0398C0.0145264 28.1207 0.894776 29.0001 1.97675 29.0001H17.43C18.3351 29.0001 19.0987 28.3845 19.3243 27.5505H27.0576C28.0779 27.4886 29.005 26.5623 28.9859 25.4817V2.0688C28.9859 0.928077 28.0569 0 26.9149 0ZM6.66468 3.62141H7.78978C8.25203 3.62141 8.62933 3.25198 8.63861 2.79029C8.65016 2.21545 9.12781 1.74782 9.70332 1.74782C10.2788 1.74782 10.7565 2.21545 10.7681 2.79029C10.7774 3.25198 11.1547 3.62141 11.6169 3.62141H12.742V4.5556H6.66468V3.62141ZM17.6942 27.0398C17.6942 27.1853 17.5756 27.3037 17.43 27.3037H1.97675C1.83106 27.3037 1.71254 27.1853 1.71254 27.0398V5.01502C1.71254 4.8695 1.83106 4.75109 1.97675 4.75109H4.96666V4.93131C4.96666 5.65947 5.55967 6.25191 6.28857 6.25191H13.1181C13.847 6.25191 14.44 5.65953 14.44 4.93131V4.75109H17.43C17.5756 4.75109 17.6942 4.8695 17.6942 5.01502V27.0398ZM27.2879 25.4816C27.2879 25.6708 27.1464 25.8296 26.9587 25.851C26.9505 25.852 26.9424 25.853 26.9343 25.8542H19.3922V5.01502C19.3922 3.93418 18.5119 3.05478 17.43 3.05478H14.4354C14.3884 2.42419 13.8609 1.92509 13.2178 1.92509H12.321C12.2947 1.84732 12.2638 1.77125 12.2306 1.69626H26.9149C27.1206 1.69626 27.2879 1.8634 27.2879 2.0688V25.4816Z" fill="#1D1D1B" fill-opacity="0.4"/>
  </symbol>
</svg>