<svg width="44" height="44" viewBox="0 0 44 44" fill="none" xmlns="http://www.w3.org/2000/svg">
<path d="M17.3607 37.9889C17.915 37.9889 18.3643 37.5412 18.3643 36.9889C18.3643 36.4366 17.915 35.9889 17.3607 35.9889C16.8064 35.9889 16.357 36.4366 16.357 36.9889C16.357 37.5412 16.8064 37.9889 17.3607 37.9889Z" fill="#9098B1" stroke="#9098B1" stroke-width="2" stroke-miterlimit="10" stroke-linecap="round" stroke-linejoin="round"/>
<path d="M31.412 37.9889C31.9663 37.9889 32.4156 37.5412 32.4156 36.9889C32.4156 36.4366 31.9663 35.9889 31.412 35.9889C30.8576 35.9889 30.4083 36.4366 30.4083 36.9889C30.4083 37.5412 30.8576 37.9889 31.412 37.9889Z" fill="#9098B1" stroke="#9098B1" stroke-width="2" stroke-miterlimit="10" stroke-linecap="round" stroke-linejoin="round"/>
<path d="M6.32038 5.9892H10.335L14.3497 29.989H34.4229L38.4376 11.9891H12.3424" stroke="#9098B1" stroke-width="2" stroke-linecap="round" stroke-linejoin="round"/>
</svg>
