<svg width="44" height="44" viewBox="0 0 44 44" fill="none" xmlns="http://www.w3.org/2000/svg">
<path fill-rule="evenodd" clip-rule="evenodd" d="M21.8724 7.76799C19.0123 7.76799 16.6937 10.0781 16.6937 12.9277C16.6937 15.7774 19.0123 18.0875 21.8724 18.0875C24.7325 18.0875 27.0511 15.7774 27.0511 12.9277C27.0511 10.0781 24.7325 7.76799 21.8724 7.76799ZM13.1251 12.9277C13.1251 8.11442 17.0414 4.21246 21.8724 4.21246C26.7034 4.21246 30.6196 8.11442 30.6196 12.9277C30.6196 17.741 26.7034 21.643 21.8724 21.643C17.0414 21.643 13.1251 17.741 13.1251 12.9277Z" fill="#9098B1"/>
<path fill-rule="evenodd" clip-rule="evenodd" d="M17.4434 28.0165C12.0058 28.0165 7.59801 32.4082 7.59801 37.8259V37.9879C7.59801 38.9698 6.79915 39.7657 5.81372 39.7657C4.82828 39.7657 4.02943 38.9698 4.02943 37.9879V37.8259C4.02943 30.4446 10.035 24.461 17.4434 24.461H26.3012C33.7097 24.461 39.7152 30.4446 39.7152 37.8259V37.9879C39.7152 38.9698 38.9164 39.7657 37.9309 39.7657C36.9455 39.7657 36.1466 38.9698 36.1466 37.9879V37.8259C36.1466 32.4082 31.7388 28.0165 26.3012 28.0165H17.4434Z" fill="#9098B1"/>
</svg>
